<svg width="125" height="111" viewBox="0 0 125 111" fill="none" xmlns="http://www.w3.org/2000/svg">
<path d="M13.1001 96H0.600098V29.8H13.1001V96Z" fill="#F52763"/>
<path d="M26.4001 63.6L17.6001 72.1V72.2L41.5001 95H41.6001L50.4001 86.5V86.4L26.5001 63.6C26.5001 63.6 26.4001 63.6 26.4001 63.6Z" fill="#F52763"/>
<path d="M26.4001 61.1L17.6001 52.6V52.5L41.5001 29.7H41.6001L50.4001 38.2V38.3L26.5001 61.1H26.4001Z" fill="#F52763"/>
<path d="M94.6001 110.9H82.7001C82.7001 110.9 82.6001 110.9 82.6001 110.8V98.4C82.6001 98.4 82.6001 98.3 82.7001 98.3H94.9001C103.4 98.3 110.8 91.9 111.3 83.5C111.9 74.3 104.6 66.6 95.5001 66.6H82.7001C82.7001 66.6 82.6001 66.6 82.6001 66.5V54.1C82.6001 54.1 82.6001 54 82.7001 54H95.5001C111.6 54 124.6 67.5 123.8 83.7C123.1 99.1 109.9 110.9 94.6001 110.9Z" fill="#F52763"/>
<path d="M56.6001 110.9H44.7001C44.7001 110.9 44.6001 110.9 44.6001 110.8V98.4C44.6001 98.4 44.6001 98.3 44.7001 98.3H56.9001C65.4001 98.3 72.8001 91.9 73.3001 83.5C73.9001 74.3 66.6001 66.6 57.5001 66.6H44.7001C44.7001 66.6 44.6001 66.6 44.6001 66.5V54.1C44.6001 54.1 44.6001 54 44.7001 54H57.5001C73.6001 54 86.6001 67.5 85.8001 83.7C85.1001 99.1 71.9001 110.9 56.6001 110.9Z" fill="#F52763"/>
<path d="M0 0.200012H2.3L5.3 8.60001L8.4 0.200012H10.5L6.1 11.4H4.4L0 0.200012Z" fill="#F52763"/>
<path d="M17.6999 0.200012H19.3999L24.1999 11.4H21.8999L20.8999 8.80001H16.0999L15.0999 11.4H12.8999L17.6999 0.200012ZM20.2999 7.10001L18.5999 2.60001L16.7999 7.10001H20.2999Z" fill="#F52763"/>
<path d="M28.7002 0.200012H31.3002L36.7002 8.50001V0.200012H38.7002V11.4H36.2002L30.7002 2.80001V11.4H28.7002V0.200012Z" fill="#F52763"/>
<path d="M52.0998 2.80001C51.6998 2.40001 51.2998 2.10001 50.8998 1.90001C50.4998 1.80001 50.0998 1.70001 49.6998 1.70001C49.0998 1.70001 48.5998 1.80001 48.0998 2.00001C47.5998 2.20001 47.1998 2.50001 46.8998 2.90001C46.5998 3.30001 46.2998 3.70001 46.0998 4.20001C45.8998 4.70001 45.7998 5.20001 45.7998 5.80001C45.7998 6.40001 45.8998 7.00001 46.0998 7.50001C46.2998 8.00001 46.4998 8.40001 46.8998 8.80001C47.1998 9.20001 47.5998 9.50001 48.0998 9.70001C48.5998 9.90001 49.0998 10 49.6998 10C50.1998 10 50.5998 9.90001 50.9998 9.70001C51.3998 9.50001 51.7998 9.10001 52.1998 8.70001L53.7998 9.90001C53.2998 10.6 52.6998 11.1 51.9998 11.4C51.2998 11.7 50.4998 11.9 49.6998 11.9C48.7998 11.9 47.9998 11.8 47.2998 11.5C46.5998 11.2 45.9998 10.8 45.3998 10.3C44.8998 9.80001 44.4998 9.20001 44.1998 8.50001C43.8998 7.80001 43.7998 7.00001 43.7998 6.10001C43.7998 5.20001 43.8998 4.40001 44.1998 3.70001C44.4998 3.00001 44.8998 2.30001 45.3998 1.80001C45.8998 1.30001 46.4998 0.90001 47.2998 0.60001C47.9998 0.30001 48.7998 0.200012 49.6998 0.200012C50.4998 0.200012 51.1998 0.30001 51.7998 0.60001C52.3998 0.90001 52.9998 1.30001 53.5998 2.00001L52.0998 2.80001Z" fill="#F52763"/>
<path d="M57.7998 5.9C57.7998 5 57.8998 4.2 58.1998 3.5C58.4998 2.8 58.8998 2.1 59.3998 1.6C59.8998 1.1 60.4998 0.700002 61.2998 0.400002C61.9998 0.100002 62.7998 0 63.6998 0C64.5998 0 65.3998 0.100002 66.0998 0.400002C66.7998 0.700002 67.4998 1.1 67.9998 1.6C68.4998 2.1 68.8998 2.7 69.1998 3.5C69.4998 4.2 69.5998 5 69.5998 5.9C69.5998 6.8 69.4998 7.6 69.1998 8.3C68.8998 9 68.4998 9.6 67.9998 10.1C67.4998 10.6 66.7998 11 66.0998 11.3C65.3998 11.6 64.5998 11.7 63.6998 11.7C62.7998 11.7 61.9998 11.6 61.2998 11.3C60.5998 11 59.9998 10.6 59.3998 10.1C58.8998 9.6 58.4998 9 58.1998 8.3C57.8998 7.5 57.7998 6.7 57.7998 5.9ZM59.8998 5.7C59.8998 6.3 59.9998 6.9 60.1998 7.4C60.3998 7.9 60.5998 8.3 60.9998 8.7C61.2998 9.1 61.6998 9.4 62.1998 9.6C62.6998 9.8 63.1998 9.9 63.7998 9.9C64.3998 9.9 64.8998 9.8 65.3998 9.6C65.8998 9.4 66.2998 9.1 66.5998 8.7C66.8998 8.3 67.1998 7.9 67.3998 7.4C67.5998 6.9 67.6998 6.3 67.6998 5.7C67.6998 5.1 67.5998 4.6 67.3998 4.1C67.1998 3.6 66.9998 3.2 66.5998 2.8C66.1998 2.4 65.8998 2.2 65.3998 1.9C64.8998 1.6 64.3998 1.6 63.7998 1.6C63.1998 1.6 62.6998 1.7 62.1998 1.9C61.6998 2.1 61.2998 2.4 60.9998 2.8C60.6998 3.2 60.3998 3.6 60.1998 4.1C59.9998 4.7 59.8998 5.2 59.8998 5.7Z" fill="#F52763"/>
<path d="M83.5998 7.30001C83.5998 8.00001 83.4998 8.60001 83.2998 9.10001C83.0998 9.60001 82.7998 10.1 82.3998 10.5C81.9998 10.9 81.4998 11.2 80.9998 11.4C80.4998 11.6 79.8998 11.7 79.1998 11.7C78.4998 11.7 77.9998 11.6 77.3998 11.4C76.8998 11.2 76.3998 10.9 75.9998 10.5C75.5998 10.1 75.2998 9.70001 75.0998 9.10001C74.8998 8.60001 74.7998 8.00001 74.7998 7.30001V0.200012H76.7998V7.20001C76.7998 7.50001 76.7998 7.80001 76.8998 8.10001C76.9998 8.40001 77.0998 8.70001 77.2998 8.90001C77.4998 9.20001 77.7998 9.40001 78.0998 9.50001C78.3998 9.70001 78.7998 9.70001 79.2998 9.70001C79.7998 9.70001 80.1998 9.60001 80.4998 9.50001C80.7998 9.30001 81.0998 9.10001 81.2998 8.90001C81.4998 8.60001 81.5998 8.40001 81.6998 8.10001C81.7998 7.80001 81.7998 7.50001 81.7998 7.20001V0.200012H83.7998V7.30001H83.5998Z" fill="#F52763"/>
<path d="M88 0.200012H90.3L93.3 8.60001L96.4 0.200012H98.5L94.1 11.4H92.4L88 0.200012Z" fill="#F52763"/>
<path d="M102.9 0.200012H110.3V2.00001H104.9V4.70001H110V6.50001H104.9V9.50001H110.6V11.3H102.9V0.200012Z" fill="#F52763"/>
<path d="M115.7 0.200012H119.6C120.1 0.200012 120.7 0.200011 121.2 0.300011C121.7 0.400011 122.1 0.600011 122.5 0.800011C122.9 1.00001 123.2 1.40001 123.4 1.80001C123.6 2.20001 123.7 2.70001 123.7 3.40001C123.7 4.20001 123.5 4.90001 123 5.40001C122.6 5.90001 121.9 6.30001 121.1 6.40001L124.1 11.3H121.7L119.1 6.60001H117.6V11.3H115.6V0.200012H115.7ZM119.3 5.00001C119.6 5.00001 119.9 5.00001 120.2 5.00001C120.5 5.00001 120.7 4.90001 121 4.80001C121.2 4.70001 121.4 4.50001 121.6 4.30001C121.8 4.10001 121.8 3.80001 121.8 3.40001C121.8 3.10001 121.7 2.80001 121.6 2.60001C121.5 2.40001 121.3 2.30001 121.1 2.20001C120.9 2.10001 120.6 2.00001 120.4 2.00001C120.1 2.00001 119.9 2.00001 119.6 2.00001H117.9V5.00001H119.3Z" fill="#F52763"/>
</svg>
